<svg version="1.2" baseProfile="tiny-ps" xmlns="http://www.w3.org/2000/svg" viewBox="0 0 1539 651" width="200" height="85">
	<title>skao_logo_2021_colour_rgb-ai</title>
	<defs>
		<linearGradient id="grd1" gradientUnits="userSpaceOnUse"  x1="208.1" y1="-45.4" x2="1412.8" y2="167">
			<stop offset="0" stop-color="#15265c"  />
			<stop offset=".3" stop-color="#15265c"  />
			<stop offset=".4" stop-color="#fe3377"  />
			<stop offset=".5" stop-color="#fe3377"  />
			<stop offset=".7" stop-color="#15265c"  />
			<stop offset="1" stop-color="#15265c"  />
		</linearGradient>
	</defs>
	<style>
		tspan { white-space:pre }
		.s0 { fill: url(#grd1) } 
	</style>
	<g >
		<g >
			<path fill-rule="evenodd" class="s0" d="m960.04 162.52l96.45 325.01h-87.61l-25.94-97.54l-2.25-8.31c-14.57 4.42-30.75 9.52-45.01 14.08c-9.24 2.96-18.52 6.58-26.83 11.51c-12.47 7.39-19.34 19.63-23.67 33.18c-4.9 15.31-9.89 31.71-14.62 47.09h-171.73c-6.4-20.94-11.25-36.55-14.53-46.83c-1.59-4.96-3.52-9.74-5.94-14.18l-4.76-7.36c-3.49-4.56-7.73-8.53-12.97-11.63c-8.31-4.92-17.58-8.55-26.82-11.51c-18.03-5.77-36.19-11.27-54.77-16.89v108.4h-83.7v-325.13h83.7v97.21c0.01 0 0.02 0 0.03 0v10.43c18.57-5.61 36.72-11.11 54.74-16.88c9.24-2.96 18.52-6.58 26.82-11.51c12.47-7.39 19.34-19.63 23.67-33.17c4.93-15.42 9.57-30.62 14.33-46.09h86.17c-4.37 14.14-8.61 27.76-12.67 40.9c-5.31 17.16-10.49 34.37-15.96 51.48c-0.62 1.94-1.3 3.86-2.04 5.74l-51.04-41.8c-1.67-1.17-3.73 0.81-2.62 2.52l42.14 58.49c-2.89 3.14-6.23 5.91-10.12 8.22c-8.31 4.93-17.58 8.55-26.82 11.51c-26.73 8.55-53.66 16.51-81.99 25.13c28.33 8.62 55.26 16.58 81.99 25.13c7.74 2.48 15.5 5.44 22.7 9.22l-32.06 40.84c-1.27 1.6 0.59 3.77 2.36 2.77l47.6-28.61c4.39 6.05 7.53 13.06 9.9 20.47c5.47 17.11 10.66 34.32 15.96 51.48c3.9 12.63 8.27 27.07 12.47 40.66c0.74-2.4 1.74-5.25 2.47-7.6l2.34-7.5l-0.01-0.03c2.71-8.77 5.34-17.29 7.97-25.79c5.31-17.16 10.49-34.37 15.96-51.48c2.78-8.68 6.6-16.81 12.27-23.49l50.54 44.99c1.6 1.27 3.77-0.59 2.77-2.36l-36.53-55.24c6.85-3.48 14.16-6.24 21.45-8.58c23.8-7.61 70.59-21.57 100.57-30.63l-0.07-0.31l-25.7-95.31l-8.09 31.81c0.01 0 0.01 0 0.02 0.01l-14.92 58.84c-2.76-0.85-5.53-1.71-8.29-2.56c-14.55-4.53-45.04-14.24-65.11-22.02l91.49-95.35c1.27-1.6-0.59-3.77-2.36-2.77l-81.39 59.43l25.53-88.09h124.56zm422.2 162.4c-0.25 99.22-71.18 169.79-170.62 169.73c-99.24-0.06-170.22-71.01-170.2-170.12c0.02-99.25 70.53-169.47 170.08-169.46c0.16 0 0.35 0 0.51 0c100.18 0.24 170.47 70.38 170.23 169.85zm-300.44-80.11c0.01 0 0.02 0 0.03 0c3.58-0.02 6.46-2.94 6.45-6.51c-0.02-3.58-2.94-6.46-6.51-6.44c-3.58 0.02-6.47 2.94-6.45 6.51c0.02 3.57 2.92 6.44 6.48 6.44zm9.77 38.85c-0.02-3.58-2.94-6.46-6.52-6.44c-3.58 0.02-6.46 2.94-6.44 6.51c0.02 3.57 2.92 6.44 6.48 6.44c0.01 0 0.02 0 0.04 0c3.58-0.02 6.46-2.94 6.45-6.51zm207 42.23c0.85-57.5-32.74-95.43-85.21-96.19c-54.48-0.79-88.54 36.12-88.23 95.61c0.3 58.12 33.77 95.08 86.22 95.22c0.1 0 0.2 0 0.3 0c52.11 0 86.06-36.95 86.91-94.65zm-868.26 56.35c0 19.19-3.25 36.01-9.67 50.02c-6.39 13.96-15.7 25.66-27.65 34.8c-12.03 9.18-27.03 16.17-44.59 20.75c-17.68 4.61-38 6.95-60.38 6.95c-48.64 0-92.01-7.9-128.94-23.49l25.78-68.75l36.5 8.18l14.96 3.05c5.37 1.11 10.75 2.09 16.13 2.95c5.37 0.87 10.47 1.61 15.32 2.24c4.88 0.64 9.26 0.96 13.01 0.96c5.89 0 11.65-0.2 17.11-0.59c5.63-0.41 10.68-1.36 15.03-2.84c4.55-1.56 8.29-3.86 11.08-6.84c3.02-3.21 4.55-7.53 4.55-12.85c0-6.51-3.31-12-9.84-16.32c-5.84-3.86-13.22-7.36-21.92-10.4c-8.58-2.99-18.1-5.75-28.29-8.18c-10-2.38-19.49-5.01-28.3-7.83c-11.96-3.36-23.22-8.02-33.47-13.82c-10.2-5.77-19.14-12.73-26.56-20.7c-7.38-7.92-13.23-17.02-17.38-27.05c-4.13-9.99-6.23-21.17-6.23-33.22c0-70.03 45.36-104.07 138.68-104.07c43.16 0 83.95 8.07 121.29 23.99l-26.43 66.81l-10.67-2.5c-26.84-7.63-103.47-27.34-116.32-7.57l-0.31 0.43c-3.21 4.77-4.05 10.06-2.5 15.86c0.07 0.31 0.53 1.67 0.67 2.04c1.12 3.13 3.12 6.02 6.13 8.62c0.04 0.03 0.06 0.06 0.09 0.09c0 0 0 0 0 0c5.11 4.39 12.87 8.04 23.35 10.89c46.97 14.59 81.3 23.98 104.86 42.4c23.16 18.1 34.9 40.29 34.9 65.95zm428.16-119.67c-0.02-3.58-2.93-6.46-6.51-6.45c-3.58 0.02-6.46 2.94-6.44 6.51c0.02 3.57 2.92 6.45 6.48 6.45c0.01 0 0.02 0 0.04 0c3.58-0.02 6.46-2.94 6.44-6.52zm-147.44-62.38c0.02 3.57 2.92 6.44 6.48 6.44c0.01 0 0.02 0 0.04 0c3.58-0.02 6.46-2.94 6.45-6.51c-0.02-3.58-2.94-6.46-6.51-6.44c-3.58 0.02-6.46 2.94-6.44 6.51zm-145.43 85.08c3.58-0.02 6.46-2.94 6.44-6.52c-0.02-3.58-2.94-6.46-6.51-6.44c-3.58 0.02-6.46 2.94-6.44 6.51c0.02 3.57 2.92 6.44 6.48 6.44c0.01 0 0.02 0 0.04 0zm12.96 58.28c-0.02-3.58-2.94-6.46-6.52-6.44c-3.58 0.02-6.46 2.94-6.44 6.51c0.02 3.57 2.92 6.44 6.48 6.44c0.01 0 0.02 0 0.04 0c3.58-0.02 6.46-2.94 6.44-6.51zm45.95 44.16c-0.02-3.58-2.94-6.46-6.51-6.44c-3.58 0.02-6.46 2.94-6.44 6.51c0.02 3.57 2.92 6.44 6.48 6.44c0.01 0 0.02 0 0.04 0c3.58-0.02 6.46-2.94 6.44-6.51zm31.37-24.85c0.02 3.57 2.92 6.44 6.48 6.44c0.01 0 0.02 0 0.03 0c3.58-0.02 6.46-2.94 6.44-6.52c-0.02-3.58-2.94-6.46-6.51-6.44c-3.58 0.02-6.46 2.94-6.44 6.51zm25.16 95.38c-0.02-3.58-2.94-6.46-6.51-6.44c-3.58 0.02-6.47 2.94-6.45 6.51c0.02 3.57 2.92 6.44 6.48 6.44c0.01 0 0.02 0 0.04 0c3.58-0.02 6.46-2.94 6.44-6.51zm20.75-11.42c-0.02-3.58-2.94-6.46-6.51-6.44c-3.58 0.02-6.46 2.94-6.44 6.51c0.02 3.57 2.92 6.44 6.48 6.44c0.01 0 0.02 0 0.04 0c3.58-0.02 6.47-2.94 6.44-6.51z" />
		</g>
	</g>
</svg>